HIERARCHY
ROOT Hips
{
  OFFSET -35.4901 99.2528 17.4586
  CHANNELS 6 Xposition Yposition Zposition Zrotation Xrotation Yrotation
  JOINT LeftUpLeg
  {
    OFFSET 8.64259 1.95398 -2.38835
    CHANNELS 3 Zrotation Xrotation Yrotation
    JOINT LeftLeg
    {
      OFFSET 43.7702 0 0
      CHANNELS 3 Zrotation Xrotation Yrotation
      JOINT LeftFoot
      {
        OFFSET 40.6238 0 0
        CHANNELS 3 Zrotation Xrotation Yrotation
        JOINT LeftToeBase
        {
          OFFSET 12.7242 0 0
          CHANNELS 3 Zrotation Xrotation Yrotation
          End Site
          {
            OFFSET 0 0 0
          }
        }
      }
    }
  }
  JOINT RightUpLeg
  {
    OFFSET -8.2249 1.95398 -2.59336
    CHANNELS 3 Zrotation Xrotation Yrotation
    JOINT RightLeg
    {
      OFFSET 43.5653 0 0
      CHANNELS 3 Zrotation Xrotation Yrotation
      JOINT RightFoot
      {
        OFFSET 40.6238 0 0
        CHANNELS 3 Zrotation Xrotation Yrotation
        JOINT RightToeBase
        {
          OFFSET 12.7242 0 0
          CHANNELS 3 Zrotation Xrotation Yrotation
          End Site
          {
            OFFSET 0 0 0
          }
        }
      }
    }
  }
  JOINT Spine
  {
    OFFSET 0.165834 0.87714 6.61349
    CHANNELS 3 Zrotation Xrotation Yrotation
    JOINT Spine1
    {
      OFFSET 7.38963 1.71661e-005 0
      CHANNELS 3 Zrotation Xrotation Yrotation
      JOINT Spine2
      {
        OFFSET 11.9445 1.14441e-005 0
        CHANNELS 3 Zrotation Xrotation Yrotation
        JOINT Spine3
        {
          OFFSET 14.7254 4.19617e-005 0
          CHANNELS 3 Zrotation Xrotation Yrotation
          JOINT Spine4
          {
            OFFSET 10.9679 0 0
            CHANNELS 3 Zrotation Xrotation Yrotation
            JOINT RightShoulder
            {
              OFFSET 2.46616 -1.6653 3.69651
              CHANNELS 3 Zrotation Xrotation Yrotation
              JOINT RightArm
              {
                OFFSET 13.0012 0 0
                CHANNELS 3 Zrotation Xrotation Yrotation
                JOINT RightForeArm
                {
                  OFFSET 28.7848 1.52588e-005 0
                  CHANNELS 3 Zrotation Xrotation Yrotation
                  JOINT RightHand
                  {
                    OFFSET 26.5688 1.52588e-005 0
                    CHANNELS 3 Zrotation Xrotation Yrotation
                    End Site
                    {
                      OFFSET 0 0 0
                    }
                  }
                }
              }
            }
            JOINT LeftShoulder
            {
              OFFSET 2.38034 -1.29275 -3.7523
              CHANNELS 3 Zrotation Xrotation Yrotation
              JOINT LeftArm
              {
                OFFSET 16.3182 6.10351e-005 0
                CHANNELS 3 Zrotation Xrotation Yrotation
                JOINT LeftForeArm
                {
                  OFFSET 27.0901 0 0
                  CHANNELS 3 Zrotation Xrotation Yrotation
                  JOINT LeftHand
                  {
                    OFFSET 24.5451 1.52588e-005 0
                    CHANNELS 3 Zrotation Xrotation Yrotation
                    End Site
                    {
                      OFFSET 0 0 0
                    }
                  }
                }
              }
            }
            JOINT Neck
            {
              OFFSET 5.0226 -0.0266342 0
              CHANNELS 3 Zrotation Xrotation Yrotation
              JOINT Head
              {
                OFFSET 6.69364 2.86102e-005 0
                CHANNELS 3 Zrotation Xrotation Yrotation
                End Site
                {
                  OFFSET 0 0 0
                }
              }
            }
          }
        }
      }
    }
  }
}
MOTION
Frames:	10
Frame Time:	0.0416667
25.2446 99.6662 11.8842 -157.445 -81.028 -158.376 -175.52 -4.96109 92.4206 -12.8313 -4.87507 -0.96759 71.5105 5.25939 -5.14099 18.9156 -4.19352 6.69541 169.695 -3.09305 85.152 -13.8155 -13.7057 -2.33333 68.8883 -4.47209 1.13624 27.586 -0.865387 2.43235 0.309453 7.62428 -90.0429 11.6258 0.595503 -0.147314 -0.0450155 0.588446 -0.173386 -22.5813 0.612241 0.0384764 -2.56863 0.612249 0.0384847 89.2242 -31.7681 -107.596 41.0116 -11.2363 -4.54061 2.67909 -28.2677 -16.3016 -21.9816 -0.4668 -6.06721 -83.0298 -50.3326 89.2485 -27.9966 14.0165 -15.0198 1.63299 4.9107 -5.68053 4.09309 -0.204811 -6.39292 4.59438 -1.48557 -1.00535 -4.86625 -1.32631 1.75688 
25.0632 99.6833 12.0119 -160.185 -81.0937 -161.428 -175.781 -5.29966 92.0994 -12.3882 -4.7523 -0.721384 71.3253 5.34155 -4.58526 18.994 -3.18053 5.27157 169.22 -3.13213 84.7435 -14.1529 -15.4967 -2.1092 68.7365 -4.55571 -0.723125 26.9623 -1.11676 3.12949 0.314898 7.60818 -90.0992 11.6582 0.579912 -0.258096 -0.0126799 0.567988 -0.283381 -22.5488 0.630666 -0.0718643 -2.53619 0.630666 -0.0718803 89.8098 -30.7154 -106.861 41.805 -11.3048 -4.11534 2.84685 -28.5764 -15.8167 -22.5785 -0.541548 -5.68926 -83.3329 -51.2846 88.8865 -27.7069 13.918 -13.9258 1.98735 5.83253 -7.0433 0.0876298 -0.178101 -8.66064 4.0468 -1.58482 0.105773 -4.86391 -1.61013 1.21513 
24.7377 99.705 12.2288 -161.257 -81.157 -162.532 -176.003 -5.76015 92.0695 -11.6613 -4.8286 -0.330232 70.9487 5.218 -4.91376 19.1293 -3.5381 5.77691 169.028 -3.3799 84.7469 -14.1148 -15.3052 -1.88317 69.01 -4.62494 -0.47995 26.4844 -1.02881 2.93464 0.336708 7.60627 -90.0774 11.662 0.633499 -0.220291 -0.0088184 0.623192 -0.247972 -22.5452 0.670412 -0.0197059 -2.53253 0.670418 -0.0197125 89.8561 -31.1056 -106.623 41.5912 -10.3219 -4.19065 3.65774 -28.9908 -14.4804 -22.9628 -0.140615 -8.09478 -83.5537 -50.4867 88.4756 -27.3584 14.7573 -13.3613 1.17594 4.66756 -6.21865 2.46515 -0.159472 -5.89483 4.26 -1.61583 -0.592836 -5.30746 -1.52348 1.25866 
24.4055 99.6989 12.2959 -161.918 -81.3047 -163.243 -175.944 -5.58296 92.2165 -11.7541 -4.34874 -0.298344 70.6391 5.08861 -4.68493 19.5515 -3.85936 6.24407 169.161 -3.47685 84.9486 -13.9519 -15.0089 -1.90183 69.142 -4.71469 -0.504012 26.4996 -1.07908 3.06155 0.30999 7.57517 -90.1125 11.7244 0.563767 -0.283484 0.0535108 0.550748 -0.308033 -22.4826 0.622905 -0.100939 -2.46991 0.622902 -0.100945 89.7726 -30.7633 -106.916 41.2947 -10.8444 -4.09354 3.11488 -30.0302 -14.7687 -23.0737 -0.249396 -7.59909 -83.4471 -51.2878 88.7164 -27.4981 14.1748 -12.697 1.24874 4.82238 -5.49957 1.33355 -0.154497 -6.38155 4.14444 -1.5082 -0.0518853 -5.04163 -1.50415 1.0434 
24.1866 99.6833 12.2843 -165.708 -81.3132 -167.149 -175.768 -5.51151 92.4153 -12.0236 -3.81009 -0.368701 70.7867 5.13718 -4.92005 20.0288 -3.64641 5.9516 168.926 -3.58118 84.85 -14.1375 -14.5893 -1.68537 69.3741 -4.82444 -0.51379 26.3083 -1.19488 3.36655 0.261319 7.59593 -90.1089 11.6826 0.468744 -0.266101 0.0117296 0.456576 -0.286479 -22.5241 0.527042 -0.112913 -2.5114 0.527045 -0.112924 89.8552 -30.7907 -106.744 41.2656 -10.8378 -4.15353 3.18112 -28.2012 -15.1259 -23.3223 -0.227822 -7.39665 -83.4968 -51.2956 88.6437 -28.146 14.0482 -12.3098 1.54898 5.73957 -5.81683 0.441159 -0.124627 -5.7584 4.01753 -1.66556 -0.284481 -4.50804 -1.6125 0.990658 
24.0375 99.7063 12.4062 -166.031 -81.0897 -167.655 -175.655 -5.95598 92.4298 -11.7878 -3.69114 -0.460163 70.633 5.11958 -5.02951 19.4445 -3.71796 6.03956 168.777 -3.81957 84.6709 -14.2348 -14.6981 -1.68111 69.5251 -4.86322 -0.480127 26.4348 -1.15394 3.2566 0.267263 7.60964 -90.095 11.6551 0.487137 -0.240008 -0.0157639 0.476101 -0.261218 -22.5516 0.536746 -0.0824973 -2.53897 0.536743 -0.0825046 89.7777 -30.612 -106.963 41.4949 -10.7552 -4.1234 2.9961 -28.1616 -15.1693 -23.6521 -0.200203 -7.52013 -83.4191 -51.3045 88.7605 -28.6109 13.9736 -12.0418 1.9949 6.93845 -6.67638 0.963603 -0.0940825 -4.63043 4.11032 -1.75217 -0.0991897 -4.96914 -1.72902 0.788007 
23.9096 99.6805 12.417 -166.302 -81.3104 -167.755 -175.609 -5.54455 92.6634 -12.1215 -3.5489 -0.372289 70.7786 5.15383 -5.13792 19.3765 -3.95165 6.3682 169.055 -3.78473 85.0148 -13.9625 -14.5081 -1.72785 69.0253 -4.61867 -0.143977 27.6436 -1.04063 2.87815 0.258353 7.58385 -90.1136 11.7069 0.460586 -0.274581 0.0360155 0.448057 -0.294594 -22.4997 0.521817 -0.123459 -2.48709 0.521813 -0.123466 89.7296 -30.8289 -106.975 41.3218 -11.0266 -4.22865 3.23216 -27.7299 -14.9827 -24.7479 -0.0791236 -8.00283 -83.3833 -51.0964 88.793 -28.6586 13.7358 -12.3787 1.61922 4.4118 -5.8919 -0.235411 -0.148414 -7.37136 3.9178 -1.80591 -0.353572 -4.93077 -1.7395 0.845337 
23.8608 99.6755 12.3906 -167.17 -81.4233 -168.4 -175.311 -5.2543 93.0568 -12.362 -3.07334 -0.533573 70.7219 5.1439 -5.04285 20.1016 -3.6108 5.89802 169.298 -3.81107 85.3725 -13.9515 -14.0537 -1.74713 69.1712 -4.69582 -0.25661 27.0228 -1.01716 2.86526 0.242086 7.56204 -90.1429 11.7504 0.414401 -0.328539 0.0794505 0.399543 -0.346474 -22.4561 0.493982 -0.188805 -2.44346 0.493987 -0.188808 89.834 -30.8939 -106.746 41.3961 -11.323 -4.26379 3.43576 -26.4443 -15.0393 -25.0825 -0.0307856 -8.0115 -83.5014 -50.9967 88.6066 -28.3334 13.9374 -12.3495 1.48121 3.24933 -6.5075 -0.0778761 -0.161327 -7.87449 3.79322 -1.80938 -0.432073 -4.95269 -1.73307 0.949006 
24.0225 99.7258 12.4662 -168.671 -80.9269 -169.976 -175.176 -5.86838 93.0433 -12.358 -2.9314 -0.670156 70.8961 5.12345 -4.99101 19.689 -3.48132 5.70791 169.059 -4.52671 85.0873 -13.6793 -14.0547 -1.76387 69.3534 -4.82335 -0.509051 26.1608 -1.15277 3.26848 0.24694 7.62382 -90.1407 11.6268 0.425305 -0.324595 -0.0441345 0.410612 -0.343012 -22.5797 0.503196 -0.181772 -2.56707 0.5032 -0.181768 89.9468 -30.786 -106.566 41.3354 -11.2443 -4.23973 3.72464 -28.525 -14.452 -24.5365 -0.0126551 -8.5049 -83.4111 -51.427 88.7845 -27.5891 13.6894 -12.885 1.70742 3.84446 -6.7487 0.737788 -0.15703 -6.81908 4.00128 -1.71762 -0.1756 -5.22956 -1.68223 0.725742 
24.1847 99.6939 12.3066 -169.605 -81.0978 -170.94 -175.306 -5.48119 92.852 -12.563 -2.66727 -0.649761 70.7814 5.12345 -4.76332 20.0054 -3.78144 6.14468 168.776 -4.15785 84.8546 -13.8057 -14.1711 -1.54982 69.2452 -4.7646 -0.286688 26.4617 -1.05572 3.0054 0.230063 7.60202 -90.1411 11.6703 0.391475 -0.322145 -0.000593363 0.376918 -0.33906 -22.5361 0.47019 -0.189598 -2.52343 0.470194 -0.189594 89.8206 -30.6145 -106.878 41.2467 -11.2203 -4.11625 3.88303 -30.6816 -14.3681 -24.1293 -0.208803 -7.82484 -83.2568 -51.8225 89.0523 -26.6406 13.8652 -13.3656 1.7078 4.90646 -6.82958 0.886637 -0.155215 -6.99909 3.88597 -1.50058 0.108448 -5.10155 -1.51515 0.654531 
